# xmcd CD database file
# Copyright (C) 1993-1998 Ti Kan
#
# Track frame offsets:
#	150
#	12542
#	24392
#	41090
#	56360
#	67375
#	80392
#	100087
#	110615
#	123535
#	138435
#	150540
#	164827
#	175470
#	190170
#	206597
#	223717
#	237135
#	256252
#	267855
#
# Disc length: 3752 seconds
#
# Revision: 1
# Processed by: cddbd v1.4b41PL1 Copyright (c) Steve Scherf et al.
# Submitted via: NotifyCDPlayer(CDDB) 1.51.3
#
DISCID=250ea614
DTITLE=Matthew and The Mandarins - The Very Best Of
DYEAR=1900
DGENRE=
TTITLE0=Singapore Cowboy
TTITLE1=Broken Lady
TTITLE2=Lucille
TTITLE3=Daytime Friends
TTITLE4=That'll Be The Day
TTITLE5=(I'd Be) A Legend In My Time
TTITLE6=The City Of New Orleans
TTITLE7=Love Or Something Like It
TTITLE8=Love Or Something Like It
TTITLE9=I Can Almost See Houston From Here
TTITLE10=Honky Tonk Downstairs
TTITLE11=Stranger
TTITLE12=Movin' On
TTITLE13=Margaritaville
TTITLE14=It Was Almost Like A Song
TTITLE15=Lovesick Blues
TTITLE16=(After Sweet Memories) Play Born to Lose Again
TTITLE17=The Last Farewell
TTITLE18=Get Down Country Music
TTITLE19=I Really Don't Want To Know
EXTD=EMI 0777 7 7827420
EXTT0=
EXTT1=
EXTT2=
EXTT3=
EXTT4=
EXTT5=
EXTT6=
EXTT7=
EXTT8=
EXTT9=
EXTT10=
EXTT11=
EXTT12=
EXTT13=
EXTT14=
EXTT15=
EXTT16=
EXTT17=
EXTT18=
EXTT19=
PLAYORDER=
